<?xml version="1.0" encoding="UTF-8" standalone="no"?>
<!-- Generator: Adobe Illustrator 15.0.0, SVG Export Plug-In . SVG Version: 6.00 Build 0)  -->

<svg
   xmlns:dc="http://purl.org/dc/elements/1.1/"
   xmlns:cc="http://creativecommons.org/ns#"
   xmlns:rdf="http://www.w3.org/1999/02/22-rdf-syntax-ns#"
   xmlns:svg="http://www.w3.org/2000/svg"
   xmlns="http://www.w3.org/2000/svg"
   xmlns:sodipodi="http://sodipodi.sourceforge.net/DTD/sodipodi-0.dtd"
   xmlns:inkscape="http://www.inkscape.org/namespaces/inkscape"
   version="1.1"
   id="Layer_1"
   x="0px"
   y="0px"
   width="437.097px"
   height="728.819px"
   viewBox="0 0 437.097 728.819"
   enable-background="new 0 0 437.097 728.819"
   xml:space="preserve"
   inkscape:version="0.48.5 r10040"
   sodipodi:docname="compass-anchor-black-small.svg"><metadata
     id="metadata11"><rdf:RDF><cc:Work
         rdf:about=""><dc:format>image/svg+xml</dc:format><dc:type
           rdf:resource="http://purl.org/dc/dcmitype/StillImage" /></cc:Work></rdf:RDF></metadata><defs
     id="defs9" /><sodipodi:namedview
     pagecolor="#ffffff"
     bordercolor="#666666"
     borderopacity="1"
     objecttolerance="10"
     gridtolerance="10"
     guidetolerance="10"
     inkscape:pageopacity="0"
     inkscape:pageshadow="2"
     inkscape:window-width="1364"
     inkscape:window-height="730"
     id="namedview7"
     showgrid="false"
     inkscape:zoom="0.91587737"
     inkscape:cx="343.88887"
     inkscape:cy="351.41283"
     inkscape:window-x="0"
     inkscape:window-y="18"
     inkscape:window-maximized="0"
     inkscape:current-layer="g3" /><g
     id="g3"><path
       clip-rule="evenodd"
       d="m 213.183,55.903 c 3.667,0 7.333,0 10.999,0 8.519,2.144 19.082,4.149 25.997,7.999 28.72,15.988 43.118,62.767 17.998,93.988 -6.563,8.156 -15.865,11.467 -22.998,18.998 5.22509,76.92138 6.30874,160.09887 7,227.971 0.694,66.346 -2.983,145.397 36.995,167.979 29.331,16.568 56.656,-3.862 72.991,-18.998 12.134,-11.244 22.855,-21.824 27.996,-37.995 -11.311,-0.646 -19.607,1.724 -30.996,1 21.676,-29.317 40.484,-61.502 50.993,-101.987 8.647,29.51 17.591,54.998 18.998,85.989 2.876,63.309 -41.529,107.003 -78.99,131.983 -22.324,14.887 -46.393,22.123 -71.991,33.996 -26.844,12.45 -46.517,36.634 -58.992,61.992 -13.851,-23.874 -32.439,-49.409 -58.993,-61.992 -9.166,-4.344 -19.241,-6.28 -27.997,-9.999 C 77.396,633.552 10.009,583.686 8.209,510.847 c -0.957,-38.693 9.787,-64.726 19.997,-95.988 7.793,41.868 31.159,73.495 48.994,101.987 -11.021,0.688 -18.975,-1.688 -29.996,-1 11.127,23.664 31.197,48.543 54.993,58.993 24.866,10.92 51.621,-1.368 62.992,-17.998 22.006,-32.186 19.997,-97.825 19.997,-152.981 5.3572,-166.12839 3.11085,-168.99334 6.999,-227.971 -18.076,-11.495 -33.427,-24.922 -35.995,-49.994 -4.044,-39.488 22.934,-64.772 56.993,-69.992 z m -28.996,63.993 c 1.446,39.709 68.437,44.567 68.992,-1 0.273,-22.519 -19.467,-37.354 -41.995,-32.996 -17.133,3.314 -27.645,16.208 -26.997,33.996 z"
       id="path5"
       inkscape:connector-curvature="0"
       style="fill-rule:evenodd"
       sodipodi:nodetypes="ccccccscccccccccsccccsccccccccc" /></g></svg>