<?xml version="1.0" encoding="UTF-8" standalone="no"?>
<!-- Generator: Adobe Illustrator 16.2.1, SVG Export Plug-In . SVG Version: 6.00 Build 0)  -->

<svg
   xmlns:dc="http://purl.org/dc/elements/1.1/"
   xmlns:cc="http://creativecommons.org/ns#"
   xmlns:rdf="http://www.w3.org/1999/02/22-rdf-syntax-ns#"
   xmlns:svg="http://www.w3.org/2000/svg"
   xmlns="http://www.w3.org/2000/svg"
   xmlns:sodipodi="http://sodipodi.sourceforge.net/DTD/sodipodi-0.dtd"
   xmlns:inkscape="http://www.inkscape.org/namespaces/inkscape"
   version="1.1"
   id="Layer_1"
   x="0px"
   y="0px"
   width="457"
   height="389"
   viewBox="0 0 457 389"
   xml:space="preserve"
   inkscape:version="0.48.5 r10040"
   sodipodi:docname="googleplus.svg"><metadata
     id="metadata13"><rdf:RDF><cc:Work
         rdf:about=""><dc:format>image/svg+xml</dc:format><dc:type
           rdf:resource="http://purl.org/dc/dcmitype/StillImage" /></cc:Work></rdf:RDF></metadata><defs
     id="defs11" /><sodipodi:namedview
     pagecolor="#ffffff"
     bordercolor="#666666"
     borderopacity="1"
     objecttolerance="10"
     gridtolerance="10"
     guidetolerance="10"
     inkscape:pageopacity="0"
     inkscape:pageshadow="2"
     inkscape:window-width="1364"
     inkscape:window-height="730"
     id="namedview9"
     showgrid="false"
     inkscape:zoom="1.3037281"
     inkscape:cx="189.2844"
     inkscape:cy="203.75318"
     inkscape:window-x="0"
     inkscape:window-y="18"
     inkscape:window-maximized="0"
     inkscape:current-layer="Layer_1" /><g
     id="g3"
     transform="translate(-28,-61)"
     style="fill:#dc4a38;fill-opacity:1"><path
       d="m 223.5,82.1 c 11.8,9.6 36.4,29.7 36.4,68 0,37.3 -21.5,54.9 -43.1,71.5 -6.7,6.6 -14.4,13.6 -14.4,24.7 0,11.1 7.7,17.2 13.3,21.7 l 18.5,14.1 c 22.6,18.6 43.1,35.8 43.1,70.6 0,47.4 -46.7,95.2 -135,95.2 C 67.9,448 32,413.2 32,375.9 c 0,-18.1 9.2,-43.8 39.5,-61.5 31.8,-19.1 75,-21.7 98,-23.2 -7.2,-9.1 -15.4,-18.7 -15.4,-34.3 0,-8.6 2.6,-13.6 5.1,-19.7 -5.6,0.5 -11.3,1 -16.4,1 -54.4,0 -85.2,-39.8 -85.2,-79.1 0,-23.2 10.8,-48.9 32.9,-67.5 C 119.8,68 154.7,64 182.4,64 H 288.1 L 255.3,82.1 H 223.5 z M 187,305.9 c -4.1,-0.5 -6.7,-0.5 -11.8,-0.5 -4.6,0 -32.3,1 -53.9,8 -11.3,4 -44.1,16.1 -44.1,51.9 0,35.8 35.4,61.5 90.3,61.5 49.3,0 75.4,-23.2 75.4,-54.4 0,-25.7 -16.9,-39.3 -55.9,-66.5 m 14.9,-95.8 c 11.8,-11.6 12.8,-27.7 12.8,-36.8 0,-36.3 -22.1,-92.7 -64.7,-92.7 -13.3,0 -27.7,6.5 -35.9,16.6 -8.7,10.6 -11.3,24.2 -11.3,37.3 0,33.8 20,89.7 64.2,89.7 12.8,0.1 26.6,-6 34.9,-14.1"
       id="path5"
       inkscape:connector-curvature="0"
       style="fill:#dc4a38;fill-opacity:1" /><polygon
       points="384,64.1 384,142.3 304.3,142.3 304.3,160.1 384,160.1 384,241 401.7,241 401.7,160.1 480,160.1 480,142.3 401.7,142.3 401.7,64.1 "
       id="polygon7"
       style="fill:#dc4a38;fill-opacity:1" /></g></svg>