<svg height="1000" width="937.5" xmlns="http://www.w3.org/2000/svg"><path d="M0 788.208q0 29.768 20.984 50.996t50.752 21.228h32.208q29.768 0 50.752 -21.228t20.984 -50.996 -20.984 -50.752 -50.752 -20.984h-32.208q-29.768 0 -50.752 20.984t-20.984 50.752zm0 -287.92q0 29.768 20.984 50.752t50.752 20.984h32.208q29.768 0 50.752 -20.984t20.984 -50.752 -20.984 -50.996 -50.752 -21.228h-32.208q-29.768 0 -50.752 21.228t-20.984 50.996zm0 -288.408q0 29.768 20.984 50.752t50.752 20.984h32.208q29.768 0 50.752 -20.984t20.984 -50.752 -20.984 -50.996 -50.752 -21.228h-32.208q-29.768 0 -50.752 21.228t-20.984 50.996zm234.24 576.328q0 29.768 20.984 50.996t50.752 21.228h559.248q29.768 0 50.752 -21.228t20.984 -50.996 -20.984 -50.752 -50.752 -20.984h-559.248q-29.768 0 -50.752 20.984t-20.984 50.752zm0 -287.92q0 29.768 20.984 50.752t50.752 20.984h559.248q29.768 0 50.752 -20.984t20.984 -50.752 -20.984 -50.996 -50.752 -21.228h-559.248q-29.768 0 -50.752 21.228t-20.984 50.996zm0 -288.408q0 29.768 20.984 50.752t50.752 20.984h559.248q29.768 0 50.752 -20.984t20.984 -50.752 -20.984 -50.996 -50.752 -21.228h-559.248q-29.768 0 -50.752 21.228t-20.984 50.996z"/></svg>